<svg width="1024" height="1024" viewBox="0 0 1024 1024" fill="none" xmlns="http://www.w3.org/2000/svg">
<path d="M919.296 338.752C907.294 326.754 891.018 320.014 874.048 320.014C857.077 320.014 840.802 326.754 828.8 338.752L512 655.552L195.2 338.752C183.129 327.094 166.963 320.643 150.182 320.789C133.402 320.935 117.35 327.666 105.483 339.532C93.6173 351.398 86.8866 367.45 86.7408 384.23C86.5949 401.011 93.0458 417.177 104.704 429.248L466.752 791.296C478.754 803.294 495.029 810.034 512 810.034C528.97 810.034 545.246 803.294 557.248 791.296L919.296 429.248C931.294 417.246 938.034 400.971 938.034 384C938.034 367.03 931.294 350.754 919.296 338.752Z" fill="#AA37F5"/>
</svg>
