<svg width="256" height="256" viewBox="0 0 256 256" fill="none" xmlns="http://www.w3.org/2000/svg">
<path d="M120.49 47.5099C121.609 48.6248 122.496 49.9495 123.102 51.4081C123.708 52.8667 124.019 54.4306 124.019 56.0099C124.019 57.5893 123.708 59.1531 123.102 60.6118C122.496 62.0704 121.609 63.3951 120.49 64.5099L68.9999 116L216 116C219.183 116 222.235 117.264 224.485 119.515C226.736 121.765 228 124.817 228 128C228 131.183 226.736 134.235 224.485 136.485C222.235 138.736 219.183 140 216 140L68.9999 140L120.49 191.51C122.744 193.764 124.011 196.822 124.011 200.01C124.011 203.198 122.744 206.256 120.49 208.51C118.236 210.764 115.178 212.031 111.99 212.031C108.802 212.031 105.744 210.764 103.49 208.51L31.4899 136.51C30.3712 135.395 29.4835 134.07 28.8779 132.612C28.2722 131.153 27.9604 129.589 27.9604 128.01C27.9604 126.431 28.2722 124.867 28.8779 123.408C29.4835 121.95 30.3712 120.625 31.4899 119.51L103.49 47.5099C104.605 46.3912 105.929 45.5036 107.388 44.8979C108.847 44.2922 110.411 43.9805 111.99 43.9805C113.569 43.9805 115.133 44.2922 116.592 44.8979C118.05 45.5036 119.375 46.3912 120.49 47.5099Z" fill="black"/>
</svg>
