<svg width="425" height="467" viewBox="0 0 425 467" fill="none" xmlns="http://www.w3.org/2000/svg">
<path d="M287.196 8.27734L161.716 55.2336C153.193 63.1254 158.165 70.8857 161.716 73.7794L286.801 119.946H294.299L418.989 73.7794C427.512 66.5189 422.541 58.1273 418.989 54.839L293.115 8.27734H287.196Z" fill="#4A16A1" stroke="#4A16A1"/>
<path d="M300.613 143.227C293.984 145.752 285.487 144.279 282.067 143.227L215.776 119.157L214.987 118.368L215.776 162.562C214.513 166.034 218.67 170.322 220.906 172.032L286.408 195.708C289.88 197.286 293.379 196.365 294.694 195.708L358.618 172.032C363.037 170.77 364.931 165.982 365.326 163.746V119.552L300.613 143.227Z" fill="#4A16A1" stroke="#4A16A1"/>
<path d="M423.724 97.8496L400.443 106.531V150.33C411.176 165.167 420.436 155.723 423.724 149.146V97.8496Z" fill="#4A16A1" stroke="#4A16A1"/>
<path fill-rule="evenodd" clip-rule="evenodd" d="M48.7594 1H190.668C76.4133 47.2113 120.623 100.306 157.01 121.077C153.736 236.423 284.516 236.756 350.316 222.505V370.327C347.405 384.517 338.187 388.368 333.941 388.52H233.423V454.016C228.692 470.026 215.987 465.842 210.226 461.748L175.204 431.729L142.001 461.748C125.991 471.937 118.349 461.445 116.53 454.926V387.61H53.7626C11.19 381.788 0.850023 351.527 1.00164 337.124L1.91131 49.2126C6.27773 13.9173 34.9627 2.36451 48.7594 1ZM116.985 349.859V311.198H55.1274C34.2045 311.198 34.6596 349.859 55.1274 349.859H116.985ZM234.332 311.198V350.314H311.655V311.198H234.332Z" fill="#4A16A1"/>
<path d="M190.668 1L190.856 1.46352L190.668 0.5V1ZM48.7594 1V0.5H48.7347L48.7102 0.502428L48.7594 1ZM157.01 121.077L157.51 121.091L157.519 120.791L157.258 120.642L157.01 121.077ZM350.316 222.505H350.816V221.885L350.21 222.016L350.316 222.505ZM350.316 370.327L350.805 370.427L350.816 370.377V370.327H350.316ZM333.941 388.52V389.02H333.95L333.959 389.02L333.941 388.52ZM233.423 388.52V388.02H232.923V388.52H233.423ZM233.423 454.016L233.902 454.158L233.923 454.089V454.016H233.423ZM210.226 461.748L209.901 462.128L209.918 462.143L209.937 462.156L210.226 461.748ZM175.204 431.729L175.529 431.35L175.195 431.063L174.868 431.358L175.204 431.729ZM142.001 461.748L142.269 462.17L142.305 462.148L142.336 462.119L142.001 461.748ZM116.53 454.926H116.03V454.994L116.048 455.06L116.53 454.926ZM116.53 387.61H117.03V387.11H116.53V387.61ZM53.7626 387.61L53.6948 388.106L53.7285 388.11H53.7626V387.61ZM1.00164 337.124L1.50162 337.129L1.50163 337.125L1.00164 337.124ZM1.91131 49.2126L1.41509 49.1512L1.4114 49.181L1.41131 49.211L1.91131 49.2126ZM116.985 311.198H117.485V310.698H116.985V311.198ZM116.985 349.859V350.359H117.485V349.859H116.985ZM234.332 350.314H233.832V350.814H234.332V350.314ZM234.332 311.198V310.698H233.832V311.198H234.332ZM311.655 350.314V350.814H312.155V350.314H311.655ZM311.655 311.198H312.155V310.698H311.655V311.198ZM190.668 0.5H48.7594V1.5H190.668V0.5ZM157.258 120.642C148.199 115.471 138.661 108.292 131.229 99.7228C123.796 91.1518 118.498 81.2243 117.848 70.5481C116.55 49.2582 133.752 24.5596 190.856 1.46352L190.481 0.536478C133.33 23.6517 115.509 48.606 116.849 70.6089C117.518 81.579 122.954 91.7079 130.474 100.378C137.995 109.05 147.629 116.297 156.763 121.511L157.258 120.642ZM350.21 222.016C317.355 229.132 268.306 232.597 227.91 219.913C207.719 213.573 189.719 203.208 176.97 187.278C164.226 171.355 156.694 149.827 157.51 121.091L156.511 121.062C155.689 149.999 163.276 171.768 176.189 187.903C189.097 204.031 207.29 214.487 227.61 220.867C268.235 233.623 317.476 230.129 350.421 222.994L350.21 222.016ZM350.816 370.327V222.505H349.816V370.327H350.816ZM333.959 389.02C338.443 388.859 347.85 384.836 350.805 370.427L349.826 370.226C346.96 384.198 337.931 387.877 333.924 388.02L333.959 389.02ZM233.423 389.02H333.941V388.02H233.423V389.02ZM233.923 454.016V388.52H232.923V454.016H233.923ZM209.937 462.156C212.869 464.24 217.606 466.379 222.26 465.919C224.602 465.687 226.918 464.797 228.952 462.922C230.981 461.05 232.701 458.223 233.902 454.158L232.943 453.875C231.779 457.815 230.137 460.468 228.274 462.187C226.415 463.902 224.308 464.712 222.162 464.924C217.841 465.351 213.345 463.351 210.516 461.341L209.937 462.156ZM174.878 432.109L209.901 462.128L210.552 461.369L175.529 431.35L174.878 432.109ZM142.336 462.119L175.539 432.1L174.868 431.358L141.665 461.378L142.336 462.119ZM116.048 455.06C116.981 458.401 119.41 462.796 123.712 465.046C128.056 467.317 134.164 467.328 142.269 462.17L141.732 461.327C133.828 466.357 128.109 466.216 124.176 464.159C120.199 462.08 117.899 457.97 117.012 454.792L116.048 455.06ZM116.03 387.61V454.926H117.03V387.61H116.03ZM53.7626 388.11H116.53V387.11H53.7626V388.11ZM0.501663 337.118C0.424751 344.425 3.00418 355.703 10.9665 365.893C18.9398 376.096 32.2887 385.178 53.6948 388.106L53.8303 387.115C32.6638 384.22 19.5564 375.261 11.7545 365.277C3.94164 355.279 1.42691 344.225 1.50161 337.129L0.501663 337.118ZM1.41131 49.211L0.501638 337.122L1.50163 337.125L2.4113 49.2142L1.41131 49.211ZM48.7102 0.502428C34.7745 1.88068 5.82036 13.5419 1.41509 49.1512L2.40752 49.274C6.73509 14.2928 35.1509 2.84834 48.8086 1.49757L48.7102 0.502428ZM116.485 311.198V349.859H117.485V311.198H116.485ZM55.1274 311.698H116.985V310.698H55.1274V311.698ZM55.1274 349.359C50.1909 349.359 46.4687 347.037 43.9568 343.527C41.4349 340.003 40.1338 335.277 40.1059 330.525C40.0779 325.773 41.3234 321.05 43.8296 317.529C46.3248 314.023 50.0736 311.698 55.1274 311.698V310.698C49.7197 310.698 45.6794 313.205 43.0149 316.949C40.3616 320.677 39.077 325.618 39.1059 330.531C39.1348 335.445 40.4776 340.384 43.1437 344.109C45.8198 347.848 49.83 350.359 55.1274 350.359V349.359ZM116.985 349.359H55.1274V350.359H116.985V349.359ZM234.832 350.314V311.198H233.832V350.314H234.832ZM311.655 349.814H234.332V350.814H311.655V349.814ZM311.155 311.198V350.314H312.155V311.198H311.155ZM234.332 311.698H311.655V310.698H234.332V311.698Z" fill="#4A16A1"/>
</svg>
