<svg width="495" height="468" viewBox="0 0 495 468" fill="none" xmlns="http://www.w3.org/2000/svg">
<path d="M76.5768 74.584C82.0839 59.8561 102.916 59.8561 108.423 74.584L111.395 82.5311C113.784 88.9205 119.761 93.2631 126.576 93.5609L135.052 93.9312C150.761 94.6177 157.199 114.43 144.893 124.219L138.254 129.501C132.915 133.748 130.632 140.774 132.455 147.347L134.722 155.523C138.924 170.676 122.07 182.92 108.958 174.242L101.882 169.56C96.194 165.795 88.806 165.795 83.1176 169.56L76.0423 174.242C62.9301 182.92 46.0765 170.676 50.278 155.523L52.5451 147.347C54.3678 140.774 52.0848 133.748 46.7464 129.501L40.1065 124.219C27.8013 114.43 34.2388 94.6177 49.9476 93.9312L58.4241 93.5609C65.239 93.2631 71.216 88.9205 73.6052 82.5311L76.5768 74.584Z" fill="#4A16A1"/>
<path d="M386.577 74.584C392.084 59.8561 412.916 59.8561 418.423 74.584L421.395 82.5311C423.784 88.9205 429.761 93.2631 436.576 93.5609L445.052 93.9312C460.761 94.6177 467.199 114.43 454.893 124.219L448.254 129.501C442.915 133.748 440.632 140.774 442.455 147.347L444.722 155.523C448.924 170.676 432.07 182.92 418.958 174.242L411.882 169.56C406.194 165.795 398.806 165.795 393.118 169.56L386.042 174.242C372.93 182.92 356.076 170.676 360.278 155.523L362.545 147.347C364.368 140.774 362.085 133.748 356.746 129.501L350.107 124.219C337.801 114.43 344.239 94.6177 359.948 93.9312L368.424 93.5609C375.239 93.2631 381.216 88.9205 383.605 82.5311L386.577 74.584Z" fill="#4A16A1"/>
<path d="M233.255 30.8888C239.491 18.2536 257.509 18.2536 263.745 30.8888L271.73 47.0684C274.206 52.0859 278.993 55.5636 284.53 56.3682L302.385 58.9627C316.329 60.9888 321.896 78.1244 311.807 87.9595L298.886 100.554C294.88 104.459 293.051 110.086 293.997 115.601L297.047 133.384C299.429 147.271 284.853 157.862 272.381 151.305L256.411 142.909C251.458 140.305 245.542 140.305 240.589 142.909L224.619 151.305C212.147 157.862 197.571 147.271 199.953 133.384L203.003 115.601C203.949 110.086 202.12 104.459 198.114 100.554L185.193 87.9595C175.104 78.1244 180.671 60.9888 194.615 58.9627L212.47 56.3682C218.007 55.5636 222.794 52.0859 225.27 47.0685L233.255 30.8888Z" fill="#4A16A1"/>
<circle cx="248" cy="260" r="58" fill="#4A16A1"/>
<path d="M152 404C152 357.056 190.056 319 237 319H259C305.944 319 344 357.056 344 404V438C344 454.569 330.569 468 314 468H182C165.431 468 152 454.569 152 438V404Z" fill="#4A16A1"/>
<circle cx="120.5" cy="260.5" r="47.5" fill="#4A16A1"/>
<path fill-rule="evenodd" clip-rule="evenodd" d="M106 309C65.1309 309 32 342.131 32 383V407C32 423.569 45.4315 437 62 437H128V393C128 362.945 143.784 336.578 167.515 321.733C155.677 313.696 141.387 309 126 309H106Z" fill="#4A16A1"/>
<circle cx="375.5" cy="260.5" r="47.5" fill="#4A16A1"/>
<path fill-rule="evenodd" clip-rule="evenodd" d="M389.394 309C430.263 309 463.394 342.131 463.394 383V407C463.394 423.569 449.962 437 433.394 437H367.481V393C367.481 362.96 351.712 336.603 328 321.755C339.844 313.704 354.146 309 369.546 309H389.394Z" fill="#4A16A1"/>
</svg>
