<svg width="432" height="482" viewBox="0 0 432 482" fill="none" xmlns="http://www.w3.org/2000/svg">
<circle cx="216" cy="273.152" r="58" fill="#4A16A1"/>
<path d="M120 417.152C120 370.207 158.056 332.152 205 332.152H227C273.944 332.152 312 370.207 312 417.152V451.152C312 467.72 298.569 481.152 282 481.152H150C133.431 481.152 120 467.72 120 451.152V417.152Z" fill="#4A16A1"/>
<circle cx="88.5" cy="273.652" r="47.5" fill="#4A16A1"/>
<path fill-rule="evenodd" clip-rule="evenodd" d="M74 322.152C33.1309 322.152 0 355.283 0 396.152V420.152C0 436.72 13.4315 450.152 30 450.152H96V406.152C96 376.097 111.784 349.729 135.515 334.885C123.677 326.848 109.387 322.152 94 322.152H74Z" fill="#4A16A1"/>
<circle cx="343.5" cy="273.652" r="47.5" fill="#4A16A1"/>
<path fill-rule="evenodd" clip-rule="evenodd" d="M357.394 322.152C398.263 322.152 431.394 355.283 431.394 396.152V420.152C431.394 436.72 417.962 450.152 401.394 450.152H335.481V406.152C335.481 376.111 319.712 349.754 296 334.906C307.844 326.856 322.146 322.152 337.546 322.152H357.394Z" fill="#4A16A1"/>
<path d="M213.23 1L83.8523 49.415C75.0643 57.5519 80.1906 65.5533 83.8523 68.5368L212.823 116.138H220.553L349.117 68.5368C357.905 61.0508 352.779 52.3985 349.117 49.0081L219.333 1H213.23Z" fill="#4A16A1" stroke="#4A16A1"/>
<path d="M227.063 140.142C220.228 142.746 211.468 141.227 207.942 140.142L139.591 115.324L138.777 114.511L139.591 160.078C138.289 163.658 142.575 168.079 144.88 169.842L212.417 194.253C215.997 195.88 219.605 194.931 220.961 194.253L286.87 169.842C291.427 168.54 293.38 163.604 293.787 161.298V115.731L227.063 140.142Z" fill="#4A16A1" stroke="#4A16A1"/>
<path d="M353.999 93.3547L329.995 102.305V147.466C341.061 162.763 350.609 153.026 353.999 146.245V93.3547Z" fill="#4A16A1" stroke="#4A16A1"/>
</svg>
