<svg width="66.000000" height="63.000000" viewBox="0 0 66 63" fill="none" xmlns="http://www.w3.org/2000/svg" xmlns:xlink="http://www.w3.org/1999/xlink">
	<desc>
			Created with Pixso.
	</desc>
	<defs/>
	<path id="Форма 5" d="M44.18 1.74C36.9 -0.91 20.28 -2.34 7.81 11.21C-4.66 24.75 0.54 41.42 4.69 48.06C7.98 52.54 17.37 61.8 28.59 63L28.59 46.06C20.28 44.47 17.51 37.43 17.16 34.11C14.67 20.57 26.34 16.19 32.75 15.69L44.18 1.74ZM64.96 0.75C54.91 1.25 34.51 8.02 33.27 31.12L48.85 31.12C49.72 25.98 54.25 15.69 65.48 15.69L65.48 0.75L64.96 0.75ZM33.27 46.06L33.27 63C56.96 61.8 66 42.08 66 32.12L50.41 32.12C49.37 37.76 43.66 46.06 33.27 46.06Z" fill="#FFFFFF" fill-opacity="1.000000" fill-rule="evenodd"/>
</svg>
